<?xml version="1.0" encoding="utf-8"?><!-- Uploaded to: SVG Repo, www.svgrepo.com, Generator: SVG Repo Mixer Tools -->
<svg fill="#000000" width="800px" height="800px" viewBox="0 0 24 24" id="file-folder-2" data-name="Flat Line" xmlns="http://www.w3.org/2000/svg" class="icon flat-line"><path id="secondary" d="M3,10V20a1,1,0,0,0,1,1H20a1,1,0,0,0,1-1V12a1,1,0,0,0-1-1H11L9,9H4A1,1,0,0,0,3,10Z" style="fill: rgb(44, 169, 188); stroke-width: 2;"></path><path id="primary" d="M19,5H17V3ZM9,9l2,2h8V5L17,3H6A1,1,0,0,0,5,4V9ZM3,10V20a1,1,0,0,0,1,1H20a1,1,0,0,0,1-1V12a1,1,0,0,0-1-1H11L9,9H4A1,1,0,0,0,3,10Z" style="fill: none; stroke: rgb(0, 0, 0); stroke-linecap: round; stroke-linejoin: round; stroke-width: 2;"></path></svg>